# xmcd
#
# Track frame offsets: 
#        150
#        39376
#        67011
#        87279
#        107536
#        125841
#        144954
#        166415
#        189361
#        207616
#        220473
#        237487
#
# Disc length: 3394 seconds
#
# Revision: 0
# Processed by: cddbd v1.5.2PL0 Copyright (c) Steve Scherf et al.
# Submitted via: ExactAudioCopy v1.0b2
#
DISCID=b40d400c
DTITLE=10cc - The Original Soundtrack (SHM-CD)
DYEAR=1975
DGENRE=Pop/Rock
TTITLE0=Une Nuit A Paris
TTITLE1=I'm Not In Love
TTITLE2=Blackmail
TTITLE3=The Second Sitting For The Last Supper
TTITLE4=Brand New Day
TTITLE5=Flying Junk
TTITLE6=Life Is A Minestrone
TTITLE7=The Film Of My Love
TTITLE8=Life Is A Minestrone (Single Edit)
TTITLE9=Channel Swimmer
TTITLE10=I'm Not In Love (Single Edit)
TTITLE11=Good News
EXTD=
EXTT0=
EXTT1=
EXTT2=
EXTT3=
EXTT4=
EXTT5=
EXTT6=
EXTT7=
EXTT8=
EXTT9=
EXTT10=
EXTT11=
PLAYORDER=
